<?xml version="1.0" encoding="UTF-8"?>
<!-- Created with Inkscape (http://www.inkscape.org/) -->
<svg width="92.298mm" height="88.53mm" version="1.1" viewBox="0 0 92.298 88.53" xmlns="http://www.w3.org/2000/svg">
 <g transform="translate(-20.957 -58.426)">
  <g transform="matrix(1.5127 0 0 1.5127 -98.862 -275.62)" style="shape-inside:url(#rect4110);white-space:pre" aria-label="nfty">
   <path transform="matrix(.1749 0 0 .1749 65.353 182.2)" d="m281.28 220.82c-6.1641 0-12.64 6.2529-19.43 18.76-8.2188 15.187-19.52 43.595-33.902 85.225-0.62537 1.876-2.8144 3.3499-6.5664 4.4219-4.1094 0.89336-8.2188 1.8318-12.328 2.8144-2.8587 0.71468-4.2871 1.742-4.2871 3.082 0 0.268 0.48998 1.6075 1.4726 4.0195 0.71468 1.5187 2.0107 2.4137 3.8867 2.6816 1.4294 0.0895 5.6276-0.0905 12.596-0.5371-18.85 58.961-32.027 108.27-39.531 147.94-0.80401 4.7347 1.788 8.844 7.7734 12.328 5.0028 3.0374 8.1737 4.5547 9.5137 4.5547 0.98267 0 1.4746-0.71322 1.4746-2.1426 0-0.98267-0.13438-2.413-0.40234-4.2891-0.26795-1.7867-0.40234-3.1262-0.40234-4.0195 0-10.72 2.7699-28.631 8.3086-53.734 6.8788-31.088 16.437-64.724 28.676-100.9 10.809-0.53599 21.44-1.7866 31.893-3.752 0.92908-0.20197 1.6375-0.5384 2.1465-0.99609 0.0232 1.8281 0.87108 2.8764 2.5449 3.1406 3.8414 0.62533 8.1286 1.2516 12.863 1.877-9.6481 33.679-16.124 62.042-19.43 85.09-0.17876 0.80402-0.26758 1.5192-0.26758 2.1445 0 4.0201 2.5446 6.701 7.6367 8.041 4.1094 3.1267 7.1479 4.6894 9.1133 4.6894 1.9653 0 4.4211-1.3849 7.3691-4.1543 6.9681-6.7001 14.071-14.83 21.307-24.389 1.072-1.4294 1.473-2.6799 1.2051-3.752-0.26799-0.98267-0.98122-1.4746-2.1426-1.4746-1.34 0-2.7249 0.71518-4.1543 2.1445-12.15 11.703-19.43 17.555-21.842 17.555-1.5187 0-2.2793-1.5193-2.2793-4.5566 0-0.89337 0.0456-1.9207 0.13477-3.082 2.3227-21.708 8.8443-48.241 19.564-79.598 17.867-1.34 27.737-2.1422 29.613-2.4102 2.3227-0.44669 3.4844-1.6538 3.4844-3.6191 0-2.8586-1.5193-4.1547-4.5566-3.8867-8.8441 0.80379-15.901 0.98375-21.172 0.53711-2.0547-0.0894-3.2164-0.44694-3.4844-1.0723-0.17869-0.35734 0.09-1.519 0.80469-3.4844 7.5934-22.155 13.534-36.538 17.822-43.148 4.8241-7.4148 8.9334-11.123 12.328-11.123 0.35733 0 0.89274 0.0908 1.6074 0.26953 0.80421 0.0892 1.385 0.13281 1.7422 0.13281 1.6973 0 2.5469-0.58082 2.5469-1.7422 0-1.6974-1.2506-3.2146-3.752-4.5547-6.5214-3.5734-11.48-5.3613-14.875-5.3613-3.5734 0-6.9221 2.5012-10.049 7.5039-5.4494 8.7548-12.955 27.919-22.514 57.488-2.7694 1.6974-5.6282 3.0368-8.5762 4.0195-4.8241 1.5187-8.1293 2.5006-9.916 2.9473-0.7661 0.19153-1.3671 0.53236-1.8047 1.0195-0.24627-1.1252-1.251-1.6895-3.0195-1.6895-3.8414 0-12.998-1.1163-27.471-3.3496 19.386-53.958 33.545-83.796 42.479-89.514 2.3227-1.4294 4.9582-2.1445 7.9062-2.1445 3.9307 0 8.4431 1.3849 13.535 4.1543 0.89336 0.44668 1.8318 0.66992 2.8144 0.66992 2.2334 0 3.3496-0.893 3.3496-2.6797 0-1.1614-0.66972-2.2322-2.0098-3.2148v-2e-3c-13.668-9.9162-23.452-14.873-29.348-14.873zm-173.93 103.72c-1.4294 0-2.8143 0.7606-4.1543 2.2793-6.2534 7.3254-11.301 13.444-15.143 18.357-0.89334 0.89337-1.3398 1.6974-1.3398 2.4121 0 0.98267 0.62627 1.4746 1.877 1.4746 0.98268 0 1.8757-0.40301 2.6797-1.207 4.2881-3.8414 7.6368-6.9669 10.049-9.3789 2.412-2.412 3.6646-3.6191 3.7539-3.6191 0.3573 0 0.44623 1.6082 0.26758 4.8242-0.71468 10.541-3.7967 25.236-9.2461 44.086-5.0921 17.42-10.229 31.803-15.41 43.148-0.98268 2.1442-1.4746 3.3968-1.4746 3.7539 0.08934 0.71467 1.0278 1.4733 2.8145 2.2773 4.5561 2.2333 7.8159 3.3496 9.7812 3.3496 2.7694 0 5.1816-2.2779 7.2363-6.834 16.438-36.806 35.913-66.198 58.426-88.174 2.3227-2.2334 4.0633-3.3496 5.2246-3.3496 1.608 0 2.503 1.9658 2.6816 5.8965 0.71468 9.7375-1.3854 23.852-6.2988 42.344-4.5561 17.599-9.7382 32.296-15.545 44.088-1.1613 2.144-1.7422 3.529-1.7422 4.1543 0 1.4294 1.7425 2.8578 5.2266 4.2871 3.1267 1.34 5.4935 2.0098 7.1016 2.0098 2.0547 0 3.7083-1.3849 4.959-4.1543 1.5187-4.0201 3.0814-8.0385 4.6894-12.059 8.5761-15.455 15.544-27.247 20.904-35.377 0.17865-0.53599 0.26757-1.0734 0.26757-1.6094 0-1.6973-0.66974-2.5449-2.0098-2.5449-0.71468 0-1.4279 0.44648-2.1426 1.3398-4.02 5.2707-7.3253 9.5579-9.916 12.863 2.0547-6.3428 4.2872-15.231 6.6992-26.666 3.0374-13.847 4.5566-23.897 4.5566-30.15 0.0893-5.9854-3.5735-10.273-10.988-12.863-2.5907-1.9654-4.4676-2.9492-5.6289-2.9492s-3.1271 0.62625-5.8965 1.877c-5.5387 2.5907-14.024 11.033-25.459 25.326-11.435 14.204-20.145 27.068-26.131 38.592 9.1121-25.639 14.16-43.37 15.143-53.197 0.44667-4.4668-2.9494-7.772-10.186-9.916-1.608-3.1267-3.4829-4.6914-5.627-4.6914zm242.95 0.66992c-1.608 0-4.7789 3.3507-9.5137 10.051-5.2707 7.5041-8.6668 12.194-10.186 14.07-0.53599 0.62533-0.80273 1.2497-0.80273 1.875 0 1.2507 0.62433 1.877 1.875 1.877 0.53602 0 3.9321-2.6355 10.186-7.9062 3.9308-3.216 6.0289-4.8242 6.2969-4.8242 0.98278 0 1.3858 1.6082 1.207 4.8242-1.072 13.668-3.0378 28.096-5.8965 43.283-3.752 19.296-7.7725 31.848-12.061 37.654-1.4293 0.44669-2.2334 1.2053-2.4121 2.2774v0.26758c0 0.89332 0.44648 1.8772 1.3398 2.9492 1.9653 2.3227 3.8857 4.6895 5.7617 7.1016 1.7867 1.876 3.5292 2.8144 5.2266 2.8144 2.144 0 5.0028-1.4738 8.5762-4.4219 6.4321-5.3601 15.232-15.187 26.398-29.48 11.613-14.83 22.11-29.882 31.49-45.158-1.4294 6.7894-2.4567 11.835-3.082 15.141-10.005 46.186-21.753 82.992-35.242 110.42-17.152 35.019-36.225 52.529-57.219 52.529-11.435 0-24.433-6.2094-38.994-18.627-1.1614-0.98271-2.3685-1.4727-3.6191-1.4727-2.5014 0-3.752 1.3395-3.752 4.0195 0 1.6973 0.80411 3.3055 2.4121 4.8242 18.403 17.42 35.601 26.129 51.592 26.129 27.336 0 51.546-27.604 72.629-82.812 10.899-28.408 22.557-71.244 34.975-128.51 1.2507-5.8961 0.44659-9.9165-2.4121-12.061-5.0921-3.8414-8.5771-5.7617-10.453-5.7617-2.4119 0-3.706 2.9931-3.8848 8.9785-3.3947 10.184-12.062 25.325-25.998 45.426-14.294 20.636-25.906 34.484-34.84 41.541 2.8587-6.6108 6.5215-21.217 10.988-43.818 4.4667-22.691 6.6992-37.923 6.6992-45.695 0-4.6454-1.5173-6.9668-4.5547-6.9668-0.53603 0-3.0826 0.35759-7.6387 1.0723-2.144-1.072-3.8411-1.6094-5.0918-1.6094z" stroke-width="5.7174"/>
  </g>
 </g>
</svg>
